# xmcd
#
# Track frame offsets: 
#        150
#        18320
#        38499
#        62866
#        83541
#        108249
#        136447
#        154974
#        176143
#        199417
#        219640
#        242045
#
# Disc length: 3499 seconds
#
# Revision: 0
# Processed by: cddbd v1.5.2PL0 Copyright (c) Steve Scherf et al.
# Submitted via: ExactAudioCopy v0.99pb5
#
DISCID=a40da90c
DTITLE=Various Artist - Body and Soul: Love Serenade (Platinum Edition)
DYEAR=2009
DGENRE=Pop - R&B-Pop
TTITLE0=Marvin Gaye - Sexual Healing
TTITLE1=Earth, Wind and Fire - After The Love Has Gone
TTITLE2=Luther Vandross - Here And Now
TTITLE3=Champaign - How 'Bout Us
TTITLE4=Peabo Bryson - Can You Stop The Rain
TTITLE5=Heatwave - Always And Forever
TTITLE6=Gregory Abbott - Shake You Down
TTITLE7=The Manhattans - Shining Star
TTITLE8=Regina Belle - Make It Like It Was
TTITLE9=Ready For The World - Love You Down
TTITLE10=Babyface with Mariah Carey, Kenny G, and Sheila E. - Every Ti
TTITLE10=me I Close My Eyes
TTITLE11=Norman Connors - You Are My Starship
EXTD=
EXTT0=
EXTT1=
EXTT2=
EXTT3=
EXTT4=
EXTT5=
EXTT6=
EXTT7=
EXTT8=
EXTT9=
EXTT10=
EXTT11=
PLAYORDER=
